<?xml version="1.0" encoding="utf-8"?>
<!-- Generator: Adobe Illustrator 16.0.0, SVG Export Plug-In . SVG Version: 6.00 Build 0)  -->
<!DOCTYPE svg PUBLIC "-//W3C//DTD SVG 1.1//EN" "http://www.w3.org/Graphics/SVG/1.1/DTD/svg11.dtd">
<svg version="1.1" xmlns="http://www.w3.org/2000/svg" xmlns:xlink="http://www.w3.org/1999/xlink" x="0px" y="0px" width="692px"
	 height="692px" viewBox="0 0 692 692" enable-background="new 0 0 692 692" xml:space="preserve">
<g id="BACKGROUND">
	<g>
		<rect x="-53" y="-53" display="none" fill="#FFFFFF" width="800" height="800"/>
		<circle fill="#62C1DA" cx="347" cy="347" r="333.5"/>
	</g>
</g>
<g id="OBJECTS">
	<g>
		<g>
			<g>
				<polyline fill="none" stroke="#FFFFFF" stroke-width="5" stroke-linecap="round" stroke-linejoin="round" points="465.5,290 
					465.5,298.5 457,298.5 				"/>
				
					<line fill="none" stroke="#FFFFFF" stroke-width="5" stroke-linecap="round" stroke-linejoin="round" stroke-dasharray="17,17" x1="441" y1="298.5" x2="316" y2="298.5"/>
				<polyline fill="none" stroke="#FFFFFF" stroke-width="5" stroke-linecap="round" stroke-linejoin="round" points="307,298.5 
					298.5,298.5 298.5,290 				"/>
				
					<line fill="none" stroke="#FFFFFF" stroke-width="5" stroke-linecap="round" stroke-linejoin="round" stroke-dasharray="16,16" x1="298.5" y1="274" x2="298.5" y2="184"/>
				<polyline fill="none" stroke="#FFFFFF" stroke-width="5" stroke-linecap="round" stroke-linejoin="round" points="298.5,176 
					298.5,167.5 307,167.5 				"/>
				
					<line fill="none" stroke="#FFFFFF" stroke-width="5" stroke-linecap="round" stroke-linejoin="round" stroke-dasharray="17,17" x1="324" y1="167.5" x2="449" y2="167.5"/>
				<polyline fill="none" stroke="#FFFFFF" stroke-width="5" stroke-linecap="round" stroke-linejoin="round" points="457,167.5 
					465.5,167.5 465.5,176 				"/>
				
					<line fill="none" stroke="#FFFFFF" stroke-width="5" stroke-linecap="round" stroke-linejoin="round" stroke-dasharray="16,16" x1="465.5" y1="193" x2="465.5" y2="282"/>
			</g>
		</g>
		
			<rect x="289.5" y="161.5" fill="#62C1DA" stroke="#FFFFFF" stroke-width="5" stroke-linecap="round" stroke-linejoin="round" stroke-miterlimit="10" width="19" height="19"/>
		
			<rect x="453.5" y="161.5" fill="#62C1DA" stroke="#FFFFFF" stroke-width="5" stroke-linecap="round" stroke-linejoin="round" stroke-miterlimit="10" width="19" height="19"/>
	</g>
	<g>
		<defs>
			<rect id="XMLID_2_" x="537" y="226" width="29" height="279"/>
		</defs>
		<use xlink:href="#XMLID_2_"  overflow="visible" fill="#FFC921"/>
		<clipPath id="XMLID_4_">
			<use xlink:href="#XMLID_2_"  overflow="visible"/>
		</clipPath>
		
			<line clip-path="url(#XMLID_4_)" fill="none" stroke="#FFFFFF" stroke-width="3" stroke-miterlimit="10" x1="555" y1="358.5" x2="579" y2="358.5"/>
		
			<line clip-path="url(#XMLID_4_)" fill="none" stroke="#FFFFFF" stroke-width="3" stroke-miterlimit="10" x1="555" y1="373.5" x2="579" y2="373.5"/>
		
			<line clip-path="url(#XMLID_4_)" fill="none" stroke="#FFFFFF" stroke-width="3" stroke-miterlimit="10" x1="555" y1="358.5" x2="579" y2="358.5"/>
		
			<line clip-path="url(#XMLID_4_)" fill="none" stroke="#FFFFFF" stroke-width="3" stroke-miterlimit="10" x1="555" y1="344.5" x2="579" y2="344.5"/>
		
			<line clip-path="url(#XMLID_4_)" fill="none" stroke="#FFFFFF" stroke-width="3" stroke-miterlimit="10" x1="555" y1="329.5" x2="579" y2="329.5"/>
		
			<line clip-path="url(#XMLID_4_)" fill="none" stroke="#FFFFFF" stroke-width="3" stroke-miterlimit="10" x1="555" y1="314.5" x2="579" y2="314.5"/>
		
			<line clip-path="url(#XMLID_4_)" fill="none" stroke="#FFFFFF" stroke-width="3" stroke-miterlimit="10" x1="555" y1="299.5" x2="579" y2="299.5"/>
		
			<line clip-path="url(#XMLID_4_)" fill="none" stroke="#FFFFFF" stroke-width="3" stroke-miterlimit="10" x1="555" y1="285.5" x2="579" y2="285.5"/>
		
			<line clip-path="url(#XMLID_4_)" fill="none" stroke="#FFFFFF" stroke-width="3" stroke-miterlimit="10" x1="555" y1="270.5" x2="579" y2="270.5"/>
		
			<line clip-path="url(#XMLID_4_)" fill="none" stroke="#FFFFFF" stroke-width="3" stroke-miterlimit="10" x1="555" y1="255.5" x2="579" y2="255.5"/>
		
			<line clip-path="url(#XMLID_4_)" fill="none" stroke="#FFFFFF" stroke-width="3" stroke-miterlimit="10" x1="555" y1="240.5" x2="579" y2="240.5"/>
		
			<line clip-path="url(#XMLID_4_)" fill="none" stroke="#FFFFFF" stroke-width="3" stroke-miterlimit="10" x1="555" y1="388.5" x2="579" y2="388.5"/>
		
			<line clip-path="url(#XMLID_4_)" fill="none" stroke="#FFFFFF" stroke-width="3" stroke-miterlimit="10" x1="555" y1="403.5" x2="579" y2="403.5"/>
		
			<line clip-path="url(#XMLID_4_)" fill="none" stroke="#FFFFFF" stroke-width="3" stroke-miterlimit="10" x1="555" y1="418.5" x2="579" y2="418.5"/>
		
			<line clip-path="url(#XMLID_4_)" fill="none" stroke="#FFFFFF" stroke-width="3" stroke-miterlimit="10" x1="555" y1="432.5" x2="579" y2="432.5"/>
		
			<line clip-path="url(#XMLID_4_)" fill="none" stroke="#FFFFFF" stroke-width="3" stroke-miterlimit="10" x1="555" y1="447.5" x2="579" y2="447.5"/>
		
			<line clip-path="url(#XMLID_4_)" fill="none" stroke="#FFFFFF" stroke-width="3" stroke-miterlimit="10" x1="555" y1="462.5" x2="579" y2="462.5"/>
		
			<line clip-path="url(#XMLID_4_)" fill="none" stroke="#FFFFFF" stroke-width="3" stroke-miterlimit="10" x1="555" y1="477.5" x2="579" y2="477.5"/>
		
			<line clip-path="url(#XMLID_4_)" fill="none" stroke="#FFFFFF" stroke-width="3" stroke-miterlimit="10" x1="555" y1="492.5" x2="579" y2="492.5"/>
	</g>
	<g>
		<g>
			<defs>
				<polygon id="XMLID_1_" points="124.512,503.111 47.037,416.538 193.423,285.534 				"/>
			</defs>
			<use xlink:href="#XMLID_1_"  overflow="visible" fill="#FFC921"/>
			<clipPath id="XMLID_5_">
				<use xlink:href="#XMLID_1_"  overflow="visible"/>
			</clipPath>
			
				<line clip-path="url(#XMLID_5_)" fill="none" stroke="#FFFFFF" stroke-width="3.1685" stroke-miterlimit="10" x1="163.705" y1="329.138" x2="147.504" y2="311.036"/>
			
				<line clip-path="url(#XMLID_5_)" fill="none" stroke="#FFFFFF" stroke-width="3.1685" stroke-miterlimit="10" x1="152.686" y1="338.999" x2="136.487" y2="320.896"/>
			
				<line clip-path="url(#XMLID_5_)" fill="none" stroke="#FFFFFF" stroke-width="3.1685" stroke-miterlimit="10" x1="141.667" y1="348.858" x2="125.468" y2="330.757"/>
			
				<line clip-path="url(#XMLID_5_)" fill="none" stroke="#FFFFFF" stroke-width="3.1685" stroke-miterlimit="10" x1="130.649" y1="358.719" x2="114.45" y2="340.618"/>
			
				<line clip-path="url(#XMLID_5_)" fill="none" stroke="#FFFFFF" stroke-width="3.1685" stroke-miterlimit="10" x1="119.63" y1="368.58" x2="103.431" y2="350.479"/>
			
				<line clip-path="url(#XMLID_5_)" fill="none" stroke="#FFFFFF" stroke-width="3.1685" stroke-miterlimit="10" x1="108.613" y1="378.44" x2="92.413" y2="360.34"/>
			
				<line clip-path="url(#XMLID_5_)" fill="none" stroke="#FFFFFF" stroke-width="3.1685" stroke-miterlimit="10" x1="97.594" y1="388.301" x2="81.395" y2="370.199"/>
			
				<line clip-path="url(#XMLID_5_)" fill="none" stroke="#FFFFFF" stroke-width="3.1685" stroke-miterlimit="10" x1="86.576" y1="398.161" x2="70.376" y2="380.06"/>
			
				<line clip-path="url(#XMLID_5_)" fill="none" stroke="#FFFFFF" stroke-width="3.1685" stroke-miterlimit="10" x1="75.557" y1="408.022" x2="59.358" y2="389.92"/>
			
				<line clip-path="url(#XMLID_5_)" fill="none" stroke="#FFFFFF" stroke-width="3.1685" stroke-miterlimit="10" x1="64.539" y1="417.883" x2="48.339" y2="399.781"/>
		</g>
		<polygon fill="#62C1DA" points="78.354,418.274 147.799,356.127 115.109,459.345 		"/>
	</g>
	<g>
		<g>
			<rect x="284" y="460" fill="#A8A8AA" width="102" height="45"/>
			<polygon fill="#7C7C7F" points="386,505.22 283.595,460 386,460 			"/>
			<path fill="#2A2A2F" d="M497.469,431.641V228.504c0-5.25-4.256-9.505-9.506-9.505H182.731c-5.25,0-9.505,4.255-9.505,9.505
				v203.136H497.469z"/>
			<rect x="186.428" y="241.531" fill="#FFFFFF" width="297.839" height="173.915"/>
			<path fill="#FFFFFF" d="M173.226,431.288v28.517c0,5.25,4.256,9.506,9.505,9.506h305.232c5.25,0,9.506-4.256,9.506-9.506v-28.517
				H173.226z"/>
			<circle fill="#347A91" cx="335.347" cy="229.913" r="3.433"/>
			<g>
				<path fill="#2A2A2F" d="M336.873,454.477c0.631,2.747-1.085,5.487-3.833,6.117l-0.344,0.079
					c-2.748,0.631-5.487-1.086-6.117-3.833l-1.733-7.55c-0.63-2.747,1.086-5.486,3.834-6.117l0.342-0.079
					c2.748-0.63,8.953,2.346,9.583,5.093L336.873,454.477z"/>
				<path fill="#2A2A2F" d="M333.822,454.477c-0.63,2.747,1.086,5.487,3.833,6.117l0.343,0.079c2.749,0.631,5.487-1.086,6.117-3.833
					l1.732-7.55c0.631-2.747-1.085-5.486-3.833-6.117l-0.343-0.079c-2.748-0.63-7.717,1.289-8.347,4.037L333.822,454.477z"/>
				<path fill="none" stroke="#2A2A2F" stroke-width="3.1685" stroke-linecap="round" stroke-miterlimit="10" d="M336.14,448.538
					c0,0-1.408-6.337,1.761-8.801"/>
			</g>
			<path fill="#FFFFFF" d="M409.046,504.808c-0.477-7.206-6.456-12.905-13.78-12.905H275.428c-7.325,0-13.304,5.699-13.78,12.905
				H409.046z"/>
		</g>
		<g>
			<g>
				<rect x="204" y="281" fill="#FF7543" width="74" height="26"/>
				<rect x="204" y="318" fill="#FFC0AD" width="74" height="8"/>
				<rect x="204" y="336" fill="#FFC0AD" width="74" height="8"/>
				<rect x="204" y="354" fill="#FFC0AD" width="74" height="8"/>
				<rect x="204" y="372" fill="#FFC0AD" width="74" height="8"/>
				<rect x="204" y="390" fill="#FFC0AD" width="74" height="7"/>
			</g>
			<g>
				<rect x="298" y="281" fill="#FF7543" width="74" height="26"/>
				<rect x="298" y="318" fill="#FFC0AD" width="74" height="8"/>
				<rect x="298" y="336" fill="#FFC0AD" width="74" height="8"/>
				<rect x="298" y="354" fill="#FFC0AD" width="74" height="8"/>
				<rect x="298" y="372" fill="#FFC0AD" width="74" height="8"/>
				<rect x="298" y="390" fill="#FFC0AD" width="74" height="7"/>
			</g>
			<g>
				<rect x="392" y="281" fill="#FF7543" width="74" height="26"/>
				<rect x="392" y="318" fill="#FFC0AD" width="74" height="8"/>
				<rect x="392" y="336" fill="#FFC0AD" width="74" height="8"/>
				<rect x="392" y="354" fill="#FFC0AD" width="74" height="8"/>
				<rect x="392" y="372" fill="#FFC0AD" width="74" height="8"/>
				<rect x="392" y="390" fill="#FFC0AD" width="74" height="7"/>
			</g>
		</g>
		<g>
			<rect x="204" y="254" fill="#62C1DA" width="46" height="13"/>
			<rect x="258" y="254" fill="#70518A" width="46" height="13"/>
			<rect x="312" y="254" fill="#FFC0AD" width="47" height="13"/>
			<rect x="367" y="254" fill="#6DE0AE" width="45" height="13"/>
			<rect x="421" y="254" fill="#62C1DA" width="45" height="13"/>
		</g>
	</g>
	<g>
		<g>
			<path fill="#2A2A2F" d="M629,487.494c0,5.25-4.256,9.506-9.506,9.506H443.506c-5.25,0-9.506-4.256-9.506-9.506V370.506
				c0-5.25,4.256-9.506,9.506-9.506h175.988c5.25,0,9.506,4.256,9.506,9.506V487.494z"/>
			<rect x="444.132" y="374.274" fill="#FFFFFF" width="174.268" height="109.842"/>
			<path fill="#FFFFFF" d="M415.568,492.045c0.494,7.479,6.698,13.394,14.301,13.394h202.794c7.602,0,13.807-5.915,14.301-13.394
				H415.568z"/>
			<path fill="#C7C7C9" d="M415.568,492.045c0.494,7.479,217.095,13.394,217.095,13.394s13.807-5.915,14.301-13.394H415.568z"/>
			<circle fill="#347A91" cx="531.266" cy="367.234" r="3.433"/>
		</g>
		<g>
			<g>
				<g>
					<rect x="456" y="404" fill="#FF7543" width="42" height="14"/>
					<rect x="456" y="425" fill="#FFC0AD" width="42" height="5"/>
					<rect x="456" y="436" fill="#FFC0AD" width="42" height="5"/>
					<rect x="456" y="446" fill="#FFC0AD" width="42" height="4"/>
					<rect x="456" y="457" fill="#FFC0AD" width="42" height="4"/>
					<rect x="456" y="467" fill="#FFC0AD" width="42" height="4"/>
				</g>
				<g>
					<rect x="510" y="404" fill="#FF7543" width="44" height="14"/>
					<rect x="510" y="425" fill="#FFC0AD" width="44" height="5"/>
					<rect x="510" y="436" fill="#FFC0AD" width="44" height="5"/>
					<rect x="510" y="446" fill="#FFC0AD" width="44" height="4"/>
					<rect x="510" y="457" fill="#FFC0AD" width="44" height="4"/>
					<rect x="510" y="467" fill="#FFC0AD" width="44" height="4"/>
				</g>
				<g>
					<rect x="566" y="404" fill="#FF7543" width="42" height="14"/>
					<rect x="566" y="425" fill="#FFC0AD" width="42" height="5"/>
					<rect x="566" y="436" fill="#FFC0AD" width="42" height="5"/>
					<rect x="566" y="446" fill="#FFC0AD" width="42" height="4"/>
					<rect x="566" y="457" fill="#FFC0AD" width="42" height="4"/>
					<rect x="566" y="467" fill="#FFC0AD" width="42" height="4"/>
				</g>
			</g>
			<g>
				<rect x="456" y="388" fill="#62C1DA" width="26" height="6"/>
				<rect x="486" y="388" fill="#70518A" width="28" height="6"/>
				<rect x="519" y="388" fill="#FFC0AD" width="27" height="6"/>
				<rect x="551" y="388" fill="#6DE0AE" width="26" height="6"/>
				<rect x="581" y="388" fill="#62C1DA" width="27" height="6"/>
			</g>
		</g>
	</g>
	<g>
		<g>
			<path fill="#2A2A2F" d="M261,495.494c0,5.25-4.256,9.506-9.506,9.506h-32.988c-5.25,0-9.506-4.256-9.506-9.506v-78.988
				c0-5.25,4.256-9.506,9.506-9.506h32.988c5.25,0,9.506,4.256,9.506,9.506V495.494z"/>
			<rect x="212.304" y="419.143" fill="#FFFFFF" width="44.359" height="70.234"/>
			<rect x="212.304" y="419.143" fill="#FFC0AD" width="44.359" height="6.337"/>
			<rect x="212.304" y="483.04" fill="#FFC0AD" width="44.359" height="6.337"/>
			<circle fill="#347A91" cx="235.011" cy="497.123" r="3.433"/>
		</g>
		<g>
			<rect x="216" y="432" fill="#62C1DA" width="37" height="7"/>
		</g>
		<g>
			<rect x="216" y="442" fill="#70518A" width="37" height="6"/>
		</g>
		<g>
			<rect x="216" y="451" fill="#FF7543" width="37" height="7"/>
		</g>
		<g>
			<rect x="216" y="461" fill="#6DE0AE" width="37" height="6"/>
		</g>
		<g>
			<rect x="216" y="470" fill="#62C1DA" width="37" height="7"/>
		</g>
	</g>
	<g>
		<g>
			<path fill="#2A2A2F" d="M195,495.494c0,5.25-4.256,9.506-9.505,9.506h-76.989c-5.25,0-9.505-4.256-9.505-9.506V379.506
				c0-5.25,4.256-9.506,9.505-9.506h76.989c5.25,0,9.505,4.256,9.505,9.506V495.494z"/>
			<rect x="103.343" y="383.057" fill="#FFFFFF" width="86.958" height="105.616"/>
			<circle fill="#347A91" cx="146.293" cy="497.123" r="3.433"/>
		</g>
		<g>
			<rect x="109" y="391" fill="#62C1DA" width="34" height="6"/>
			<rect x="109" y="401" fill="#70518A" width="34" height="6"/>
			<rect x="109" y="410" fill="#FF7543" width="34" height="7"/>
			<rect x="109" y="420" fill="#6DE0AE" width="34" height="6"/>
			<rect x="109" y="429" fill="#62C1DA" width="34" height="7"/>
			<rect x="149" y="391" fill="#FF7543" width="36" height="12"/>
			<rect x="149" y="407" fill="#FFC0AD" width="36" height="4"/>
			<rect x="149" y="415" fill="#FFC0AD" width="36" height="5"/>
			<rect x="149" y="424" fill="#FFC0AD" width="36" height="4"/>
			<rect x="149" y="432" fill="#FFC0AD" width="36" height="5"/>
			<rect x="149" y="441" fill="#FFC0AD" width="36" height="4"/>
			<rect x="109" y="442" fill="#FFC0AD" width="34" height="4"/>
			<rect x="109" y="450" fill="#FFC0AD" width="34" height="5"/>
			<rect x="109" y="459" fill="#FFC0AD" width="34" height="4"/>
			<rect x="109" y="467" fill="#FFC0AD" width="34" height="4"/>
			<rect x="109" y="476" fill="#FFC0AD" width="34" height="4"/>
			<rect x="149" y="450" fill="#FF7543" width="36" height="30"/>
		</g>
	</g>
	<g>
		<g>
			<g>
				
					<circle fill="none" stroke="#FFFFFF" stroke-width="10.6142" stroke-miterlimit="10" stroke-dasharray="11.1123,11.1123" cx="121.393" cy="293.528" r="21.229"/>
			</g>
			<circle fill="#FFFFFF" cx="121.393" cy="293.528" r="21.229"/>
			<circle fill="#62C1DA" cx="121.393" cy="293.528" r="12.13"/>
		</g>
		<g>
			<g>
				
					<circle fill="none" stroke="#FFFFFF" stroke-width="7.3334" stroke-miterlimit="10" stroke-dasharray="7.6776,7.6776" cx="145.709" cy="245.282" r="14.667"/>
			</g>
			<circle fill="#FFFFFF" cx="145.709" cy="245.282" r="14.667"/>
			<circle fill="#62C1DA" cx="145.709" cy="245.282" r="8.381"/>
		</g>
		<g>
			<g>
				
					<circle fill="none" stroke="#FFFFFF" stroke-width="6.3685" stroke-miterlimit="10" stroke-dasharray="6.6672,6.6672" cx="103.252" cy="244.896" r="12.737"/>
			</g>
			<circle fill="#FFFFFF" cx="103.252" cy="244.896" r="12.737"/>
			<circle fill="#62C1DA" cx="103.252" cy="244.896" r="7.278"/>
		</g>
	</g>
	<g>
		<path fill="#FFC921" d="M368,502.5c0,1.933-1.567,3.5-3.5,3.5l0,0c-1.933,0-3.5-1.567-3.5-3.5v-97c0-1.933,1.567-3.5,3.5-3.5l0,0
			c1.933,0,3.5,1.567,3.5,3.5V502.5z"/>
		<path fill="#FFC921" d="M393,502.5c0,1.933-1.567,3.5-3.5,3.5l0,0c-1.933,0-3.5-1.567-3.5-3.5v-97c0-1.933,1.567-3.5,3.5-3.5l0,0
			c1.933,0,3.5,1.567,3.5,3.5V502.5z"/>
		<rect x="365" y="425" fill="#FFC921" width="24" height="6"/>
		<rect x="365" y="439" fill="#FFC921" width="24" height="6"/>
		<rect x="365" y="452" fill="#FFC921" width="24" height="7"/>
		<rect x="365" y="466" fill="#FFC921" width="24" height="6"/>
		<rect x="365" y="480" fill="#FFC921" width="24" height="6"/>
	</g>
	<g>
		<g>
			<path fill="#FFFFFF" d="M572,284.505c0-5.25-4.256-9.505-9.505-9.505h-42.99c-5.249,0-9.505,4.256-9.505,9.505v21.989
				c0,5.25,4.256,9.505,9.505,9.505h42.99c5.249,0,9.505-4.256,9.505-9.505V284.505z"/>
			<polyline fill="#FFFFFF" points="534.972,313.963 523,325.671 523,310 			"/>
		</g>
		<rect x="521" y="287" fill="#FFC921" width="39" height="6"/>
		<rect x="521" y="299" fill="#FFC921" width="39" height="7"/>
	</g>
	<g>
		<path fill="#FFC0AD" d="M252,148.494c0,5.25-4.256,9.506-9.505,9.506h-5.989c-5.25,0-9.505-4.256-9.505-9.506v-2.988
			c0-5.25,4.256-9.506,9.505-9.506h5.989c5.25,0,9.505,4.256,9.505,9.506V148.494z"/>
		<g>
			<rect x="227" y="160" fill="#FFC921" width="25" height="107"/>
			<rect x="234" y="160" fill="#FFE9A6" width="11" height="107"/>
			<polygon fill="#FFFFFF" points="251.945,267 226.597,267 239.271,294.46 			"/>
			<polygon fill="#2A2A2F" points="231.715,277.616 239.271,293.987 246.827,277.616 			"/>
		</g>
		<rect x="227" y="149" fill="#FFFFFF" width="25" height="11"/>
	</g>
</g>
</svg>
